<svg xmlns="http://www.w3.org/2000/svg" viewBox="0 0 189.8 41.2">
  <path d="M20.6 2c10.2 0 18.6 8.3 18.6 18.6s-8.3 18.6-18.6 18.6S2 30.8 2 20.6 10.3 2 20.6 2m0-2C9.2 0 0 9.2 0 20.6 0 32 9.2 41.2 20.6 41.2S41.2 32 41.2 20.6C41.2 9.2 31.9 0 20.6 0zM61.9 21.2c0 1.6-.3 3-.8 4.2s-1.2 2.1-2.2 2.7c-.9.6-2 .9-3.3.9-1.2 0-2.3-.3-3.3-.9-.9-.6-1.7-1.5-2.2-2.7s-.8-2.5-.8-4.1v-1.2c0-1.6.3-3 .8-4.2.5-1.2 1.3-2.1 2.2-2.8 1-.6 2-1 3.3-1 1.2 0 2.3.3 3.3.9 1 .6 1.7 1.5 2.2 2.7.5 1.2.8 2.6.8 4.2v1.3zm-2.1-1c0-1.9-.4-3.4-1.1-4.5-.7-1-1.8-1.6-3.1-1.6s-2.3.5-3.1 1.6c-.7 1-1.1 2.5-1.1 4.3v1.2c0 1.9.4 3.4 1.1 4.4.8 1.1 1.8 1.6 3.1 1.6s2.3-.5 3.1-1.5c.7-1 1.1-2.5 1.1-4.4v-1.1zm14.6 2.7c0 1.8-.4 3.3-1.2 4.5-.8 1.1-1.9 1.7-3.3 1.7s-2.5-.5-3.3-1.4v5.8h-2V16.7h1.8l.1 1.3c.8-1 1.9-1.6 3.4-1.6 1.4 0 2.5.5 3.3 1.6.8 1.1 1.2 2.6 1.2 4.6v.3zm-2-.2c0-1.4-.3-2.4-.8-3.2-.6-.8-1.3-1.2-2.3-1.2-1.2 0-2.1.6-2.7 1.7v5.8c.6 1.1 1.5 1.7 2.7 1.7.9 0 1.7-.4 2.3-1.2.5-.9.8-2.1.8-3.6zm9.3 6.4c-1.6 0-2.8-.5-3.8-1.6s-1.5-2.5-1.5-4.3v-.4c0-1.2.2-2.3.7-3.2s1.1-1.7 1.8-2.2c.8-.5 1.6-.8 2.6-.8 1.5 0 2.7.5 3.5 1.6s1.2 2.5 1.2 4.5v.9h-7.8c0 1.2.4 2.2 1 2.9s1.4 1.1 2.4 1.1c.7 0 1.3-.1 1.8-.4.5-.3.9-.7 1.3-1.2l1.2 1c-1 1.3-2.5 2.1-4.4 2.1zm-.2-10.9c-.8 0-1.5.3-2 .9s-.9 1.5-1 2.6h5.8v-.2c-.1-1.1-.3-1.9-.8-2.5-.6-.5-1.2-.8-2-.8zm8.9-1.5l.1 1.5c.9-1.2 2-1.7 3.5-1.7 2.4 0 3.7 1.4 3.7 4.3v8h-2v-8c0-.9-.2-1.5-.6-1.9-.4-.4-1-.6-1.7-.6-.6 0-1.2.2-1.7.5-.5.4-.9.8-1.1 1.4v8.6h-2V16.7h1.8zm19 4.9h-6.5v7.2h-2.1V12.5h9.6v1.8h-7.6v5.6h6.5v1.7zm8.6-3c-.3-.1-.6-.1-1-.1-1.3 0-2.2.6-2.6 1.7v8.6h-2V16.7h1.9v1.4c.6-1.1 1.6-1.6 2.8-1.6.4 0 .7.1.9.2v1.9zm6.4 10.5c-1.6 0-2.8-.5-3.8-1.6s-1.5-2.5-1.5-4.3v-.4c0-1.2.2-2.3.7-3.2.4-.9 1-1.7 1.8-2.2.8-.5 1.6-.8 2.6-.8 1.5 0 2.7.5 3.5 1.6.8 1 1.2 2.5 1.2 4.5v.9H121c0 1.2.4 2.2 1 2.9.6.7 1.4 1.1 2.4 1.1.7 0 1.3-.1 1.8-.4.5-.3.9-.7 1.3-1.2l1.2 1c-1 1.3-2.4 2.1-4.3 2.1zm-.3-10.9c-.8 0-1.5.3-2 .9s-.9 1.5-1 2.6h5.8v-.2c-.1-1.1-.3-1.9-.8-2.5-.5-.5-1.2-.8-2-.8zm11.8 10.9c-1.6 0-2.8-.5-3.8-1.6s-1.5-2.5-1.5-4.3v-.4c0-1.2.2-2.3.7-3.2.4-.9 1-1.7 1.8-2.2.8-.5 1.6-.8 2.6-.8 1.5 0 2.7.5 3.5 1.6s1.2 2.5 1.2 4.5v.9h-7.8c0 1.2.4 2.2 1 2.9.6.7 1.4 1.1 2.4 1.1.7 0 1.3-.1 1.8-.4.5-.3.9-.7 1.3-1.2l1.2 1c-1 1.3-2.4 2.1-4.4 2.1zm-.2-10.9c-.8 0-1.5.3-2 .9s-.9 1.5-1 2.6h5.8v-.2c-.1-1.1-.3-1.9-.8-2.5-.5-.5-1.2-.8-2-.8zm18.8 5.5c-.2 1.7-.8 3.1-1.8 4-1 .9-2.4 1.4-4.1 1.4-1.8 0-3.3-.7-4.4-2.1-1.1-1.4-1.7-3.2-1.7-5.6v-1.6c0-1.5.3-2.9.8-4 .5-1.2 1.2-2 2.2-2.7.9-.6 2-.9 3.3-.9 1.7 0 3 .5 4 1.5s1.6 2.3 1.7 4h-2.1c-.2-1.3-.6-2.2-1.2-2.8s-1.4-.9-2.5-.9c-1.3 0-2.3.5-3.1 1.5-.7 1-1.1 2.5-1.1 4.3v1.6c0 1.8.4 3.2 1.1 4.2.7 1 1.7 1.6 3 1.6 1.1 0 2-.3 2.6-.8.6-.5 1-1.5 1.2-2.8h2.1zm9.6 5.2c-.1-.2-.2-.7-.3-1.3-.9 1-2 1.5-3.3 1.5-1.1 0-2.1-.3-2.8-1-.7-.7-1.1-1.5-1.1-2.6 0-1.3.5-2.2 1.4-2.9s2.2-1 3.9-1h1.9v-1c0-.7-.2-1.3-.6-1.7-.4-.4-1-.6-1.8-.6-.7 0-1.3.2-1.8.6-.5.4-.7.8-.7 1.4h-2c0-.6.2-1.2.6-1.8.4-.6 1-1 1.7-1.3.7-.3 1.5-.5 2.3-.5 1.3 0 2.4.3 3.1 1s1.1 1.7 1.2 2.9V26c0 1.1.1 2 .4 2.7v.2h-2.1zm-3.3-1.6c.6 0 1.2-.2 1.8-.5.6-.3 1-.8 1.2-1.3V23h-1.5c-2.4 0-3.6.7-3.6 2.2 0 .7.2 1.2.6 1.5s.9.6 1.5.6zm17.9-4.4c0 1.9-.4 3.3-1.2 4.5s-1.9 1.7-3.3 1.7c-1.5 0-2.6-.5-3.4-1.6l-.1 1.4h-1.8V11.6h2V18c.8-1 1.9-1.6 3.3-1.6s2.5.6 3.3 1.7c.8 1.1 1.2 2.6 1.2 4.6v.2zm-2-.2c0-1.4-.3-2.5-.8-3.3-.5-.8-1.3-1.2-2.2-1.2-1.3 0-2.2.6-2.8 1.9v5.2c.6 1.3 1.5 1.9 2.8 1.9.9 0 1.7-.4 2.2-1.2.5-.6.8-1.8.8-3.3zm11.2 2.9c0-.6-.2-1-.6-1.3-.4-.3-1.1-.6-2.1-.8-1-.2-1.8-.5-2.4-.8-.6-.3-1-.7-1.3-1.1s-.4-.9-.4-1.5c0-1 .4-1.8 1.2-2.5.8-.7 1.8-1 3.1-1s2.4.4 3.2 1.1c.8.7 1.2 1.6 1.2 2.7h-2c0-.6-.2-1.1-.7-1.5-.5-.4-1-.6-1.7-.6s-1.3.2-1.7.5c-.4.3-.6.8-.6 1.3s.2.9.6 1.1c.4.3 1.1.5 2 .7 1 .2 1.8.5 2.4.8.6.3 1.1.7 1.4 1.2.3.5.4 1 .4 1.7 0 1.1-.4 2-1.2 2.6s-1.9 1-3.2 1c-.9 0-1.7-.2-2.5-.5s-1.3-.8-1.7-1.4c-.4-.6-.6-1.3-.6-2h2c0 .7.3 1.2.8 1.7.5.4 1.1.6 2 .6.7 0 1.3-.2 1.8-.5s.6-.9.6-1.5z"/>
</svg>
