<svg xmlns="http://www.w3.org/2000/svg" xmlns:xlink="http://www.w3.org/1999/xlink" preserveAspectRatio="xMidYMid" width="31" height="31" viewBox="0 0 31 31">
  <defs>
    <style>
      .cls-1 {
        fill: #fff;
      }

      .cls-2 {
        fill: #0f1116;
        fill-rule: evenodd;
      }
    </style>
  </defs>
  <g>
    <circle cx="15.5" cy="15.5" r="15.5" class="cls-1"/>
    <path d="M15.500,31.000 C6.940,31.000 -0.000,24.060 -0.000,15.500 C-0.000,6.940 6.940,-0.000 15.500,-0.000 C24.060,-0.000 31.000,6.940 31.000,15.500 C31.000,24.060 24.060,31.000 15.500,31.000 ZM15.500,2.000 C8.044,2.000 2.000,8.044 2.000,15.500 C2.000,22.956 8.044,29.000 15.500,29.000 C22.956,29.000 29.000,22.956 29.000,15.500 C29.000,8.044 22.956,2.000 15.500,2.000 Z" class="cls-2"/>
    <path d="M20.000,18.000 L20.000,15.000 L23.000,15.000 L23.000,18.000 L20.000,18.000 ZM14.000,18.000 L14.000,15.000 L17.000,15.000 L17.000,18.000 L14.000,18.000 ZM8.000,18.000 L8.000,15.000 L11.000,15.000 L11.000,18.000 L8.000,18.000 ZM11.000,12.000 L14.000,12.000 L14.000,15.000 L11.000,15.000 L11.000,12.000 ZM17.000,12.000 L20.000,12.000 L20.000,15.000 L17.000,15.000 L17.000,12.000 Z" class="cls-2"/>
  </g>
</svg>
